# xmcd
#
# Track frame offsets:
#	182
#	26270
#	44960
#	72015
#	88242
#	108482
#	129760
#	151745
#	178177
#
# Disc length: 2635 seconds
#
# Revision: 0
# Processed by: cddbd v1.4PL0 Copyright (c) Steve Scherf et al.
# Submitted via: dBpowerAMP V4.0
#
DISCID=710a4909
DTITLE=Zuice - I'm A Survivor
DYEAR=1900
DGENRE=R&B
TTITLE0=Everyone A Winner
TTITLE1=Angel
TTITLE2=I Love You
TTITLE3=He's Living For You
TTITLE4=Bless Your Luck Stars
TTITLE5=I'm A Survivor
TTITLE6=Can't You Feel The Love
TTITLE7=Sad To Say Goodbye
TTITLE8=I'm Burning
EXTD=dunc
EXTT0=
EXTT1=
EXTT2=
EXTT3=
EXTT4=
EXTT5=
EXTT6=
EXTT7=
EXTT8=
PLAYORDER=
